<?xml version="1.0" encoding="UTF-8"?>
<svg width="20px" height="35px" viewBox="0 0 20 35" version="1.1" xmlns="http://www.w3.org/2000/svg" xmlns:xlink="http://www.w3.org/1999/xlink">
    <!-- Generator: Sketch 60 (88103) - https://sketch.com -->
    <title>fh</title>
    <desc>Created with Sketch.</desc>
    <g id="波霎APP1.0" stroke="none" stroke-width="1" fill="none" fill-rule="evenodd">
        <g id="切图" transform="translate(-721.000000, -202.000000)" fill="#222222">
            <path d="M730.956434,228.978011 C730.433978,229.067838 729.940546,228.648646 729.534192,228.28934 L714.478919,212.889432 C713.84036,212.230702 713.84036,211.152781 714.478919,210.494047 C715.117477,209.835318 716.162389,209.835318 716.800951,210.494047 C717.271711,210.999819 717.624782,211.379148 717.860162,211.632034 C719.697536,213.60606 724.072645,218.150433 730.98549,225.265151 L745.199049,210.494047 C745.837607,209.835318 746.882519,209.835318 747.521081,210.494047 C748.15964,211.152777 748.15964,212.230698 747.521081,212.889432 L732.436788,228.28934 C732.030375,228.708531 731.478891,229.09778 730.956434,228.978011 Z" id="fh" transform="translate(731.000000, 219.500000) rotate(-270.000000) translate(-731.000000, -219.500000) "></path>
        </g>
    </g>
</svg>