<?xml version="1.0" encoding="UTF-8"?>
<svg width="28px" height="29px" viewBox="0 0 28 29" version="1.1" xmlns="http://www.w3.org/2000/svg" xmlns:xlink="http://www.w3.org/1999/xlink">
    <!-- Generator: Sketch 60 (88103) - https://sketch.com -->
    <title>gb</title>
    <desc>Created with Sketch.</desc>
    <g id="波霎APP1.0" stroke="none" stroke-width="1" fill="none" fill-rule="evenodd">
        <g id="切图" transform="translate(-1474.000000, -533.000000)" fill="#222222" fill-rule="nonzero">
            <g id="gb" transform="translate(1474.000000, 533.000000)">
                <path d="M0.418695392,2.53207285 L0.418695305,2.53207276 C-0.152990627,1.93912662 -0.137281204,0.993531998 0.453784544,0.420027326 C1.04485029,-0.153477345 1.98744617,-0.137717946 2.5591321,0.455228197 L16,14.4 L2.5591321,28.3447718 L2.55913212,28.3447718 C1.98744619,28.9377179 1.04485031,28.9534773 0.453784564,28.3799727 C-0.137281185,27.806468 -0.152990608,26.8608734 0.418695324,26.2679272 L11.8595037,14.3999864 L0.418695324,2.53204551 L0.418695392,2.53207285 Z" id="路径备份-2"></path>
                <path d="M12.4186954,2.53207285 L12.4186953,2.53207276 C11.8470094,1.93912662 11.8627188,0.993531998 12.4537845,0.420027326 C13.0448503,-0.153477345 13.9874462,-0.137717946 14.5591321,0.455228197 L28,14.4 L14.5591321,28.3447718 L14.5591321,28.3447718 C13.9874462,28.9377179 13.0448503,28.9534773 12.4537846,28.3799727 C11.8627188,27.806468 11.8470094,26.8608734 12.4186953,26.2679272 L23.8595037,14.3999864 L12.4186953,2.53204551 L12.4186954,2.53207285 Z" id="路径备份-2" transform="translate(20.000000, 14.400000) rotate(-180.000000) translate(-20.000000, -14.400000) "></path>
            </g>
        </g>
    </g>
</svg>