<?xml version="1.0" encoding="UTF-8"?>
<svg width="74px" height="74px" viewBox="0 0 74 74" version="1.1" xmlns="http://www.w3.org/2000/svg" xmlns:xlink="http://www.w3.org/1999/xlink">
    <!-- Generator: Sketch 60 (88103) - https://sketch.com -->
    <title>coin_cross_circle</title>
    <desc>Created with Sketch.</desc>
    <g id="页面-1" stroke="none" stroke-width="1" fill="none" fill-rule="evenodd">
        <g id="切图" transform="translate(-908.000000, -381.000000)" fill="#FFFFFF" fill-rule="nonzero">
            <g id="coin_cross_circle" transform="translate(908.000000, 381.000000)">
                <path d="M40.7375781,36.974067 L51.9502299,48.1868013 L48.2127344,51.9242969 L37,40.7116451 L25.7872656,51.9242969 L22.0497701,48.1868013 L33.2624219,36.974067 L22.0497701,25.7614152 L25.7872656,22.0237545 L37,33.2364062 L48.2127344,22.0237545 L51.9502299,25.7613326 L40.7375781,36.9739844 L40.7375781,36.974067 Z M37,0 C57.4116942,0 74,16.5883058 74,37 C74,57.4116942 57.4116942,74 37,74 C16.5883058,74 0,57.4116942 0,37 C0,16.5883058 16.5883058,0 37,0 Z M37,5.28571429 C19.5075893,5.28571429 5.28571429,19.5075893 5.28571429,37 C5.28571429,54.4924107 19.5075893,68.7142857 37,68.7142857 C54.4924107,68.7142857 68.7142857,54.4924107 68.7142857,37 C68.7142857,19.5075893 54.4924107,5.28571429 37,5.28571429 Z" id="形状"></path>
            </g>
        </g>
    </g>
</svg>