<?xml version="1.0" encoding="UTF-8"?>
<svg width="30px" height="30px" viewBox="0 0 30 30" version="1.1" xmlns="http://www.w3.org/2000/svg" xmlns:xlink="http://www.w3.org/1999/xlink">
    <!-- Generator: Sketch 60 (88103) - https://sketch.com -->
    <title>ewm</title>
    <desc>Created with Sketch.</desc>
    <g id="波霎APP1.0" stroke="none" stroke-width="1" fill="none" fill-rule="evenodd">
        <g id="切图" transform="translate(-2257.000000, -930.000000)" fill="#FFEAEA" fill-rule="nonzero">
            <path d="M2257.00003,944.117615 L2271.11767,944.117615 L2271.11767,930 L2257.00003,930 L2257.00003,944.117615 Z M2260.52945,933.52942 L2267.58825,933.52942 L2267.58825,940.588228 L2260.52945,940.588228 L2260.52945,933.52942 Z M2272.88236,930.000033 L2272.88236,944.117682 L2287,944.117682 L2287,930.000033 L2272.88236,930.000033 L2272.88236,930.000033 Z M2283.47055,940.588228 L2276.41175,940.588228 L2276.41175,933.52942 L2283.47055,933.52942 L2283.47055,940.588228 L2283.47055,940.588228 Z M2262.29411,938.823544 L2265.82349,938.823544 L2265.82349,935.294124 L2262.29411,935.294124 L2262.29411,938.823544 Z M2257,960 L2271.11764,960 L2271.11764,945.882352 L2257,945.882352 L2257,960 Z M2260.52942,949.411772 L2267.58822,949.411772 L2267.58822,956.47058 L2260.52942,956.47058 L2260.52942,949.411772 Z M2281.70586,935.294124 L2278.17644,935.294124 L2278.17644,938.823511 L2281.70586,938.823511 L2281.70586,935.294124 L2281.70586,935.294124 Z M2272.88233,960 L2276.41171,960 L2276.41171,956.470613 L2272.88233,956.470613 L2272.88233,960 L2272.88233,960 Z M2286.99993,952.941159 L2286.99993,960 L2279.94113,960 L2279.94113,956.470613 L2283.47055,956.47058 L2283.47055,952.941159 L2286.99993,952.941159 Z M2279.9411,949.411772 L2279.9411,956.47058 L2276.41171,956.47058 L2276.41171,949.411772 L2279.9411,949.411772 Z M2265.82349,951.176532 L2265.82349,954.705919 L2262.29411,954.705919 L2262.29411,951.176532 L2265.82349,951.176532 Z M2286.9999,945.882385 L2286.9999,949.411772 L2283.47052,949.411772 L2283.47052,945.882385 L2286.9999,945.882385 Z M2276.41171,945.882385 L2276.41171,949.411772 L2272.88233,949.411772 L2272.88233,945.882385 L2276.41171,945.882385 Z" id="ewm"></path>
        </g>
    </g>
</svg>