<?xml version="1.0" encoding="UTF-8"?>
<svg width="46px" height="46px" viewBox="0 0 46 46" version="1.1" xmlns="http://www.w3.org/2000/svg" xmlns:xlink="http://www.w3.org/1999/xlink">
    <!-- Generator: Sketch 60 (88103) - https://sketch.com -->
    <title>gz</title>
    <desc>Created with Sketch.</desc>
    <g id="波霎APP1.0" stroke="none" stroke-width="1" fill="none" fill-rule="evenodd">
        <g id="切图" transform="translate(-416.000000, -676.000000)" fill-rule="nonzero">
            <g id="gz" transform="translate(416.000000, 676.000000)">
                <g id="消息">
                    <path d="M22.8,0 C10.2079077,0 0,10.2079077 0,22.8 C0,35.3920923 10.2079077,45.6 22.8,45.6 C35.3920923,45.6 45.6,35.3920923 45.6,22.8 C45.6,10.2079077 35.3920923,0 22.8,0 Z M22.8,3.6 C33.4038672,3.6 42,12.1961328 42,22.8 C42,33.4038672 33.4038672,42 22.8,42 C12.1961328,42 3.6,33.4038672 3.6,22.8 C3.6,12.1961328 12.1961328,3.6 22.8,3.6 Z" id="椭圆形" fill="#FF6D6D"></path>
                    <path d="M27.7397017,30.0198849 L27.0967939,26.2689125 C26.9337682,25.3176661 27.2495247,24.3471839 27.9412556,23.6733069 L30.668974,21.0161013 L26.8983144,20.4675679 C25.9420476,20.3284602 25.1154397,19.728678 24.687455,18.8634009 L22.9999137,15.451426 L21.3123442,18.8634009 C20.8843877,19.728678 20.0577799,20.3284602 19.101513,20.4675679 L15.3308252,21.0160731 L18.0585436,23.6733069 C18.7503027,24.3471839 19.066031,25.3176661 18.9030053,26.2689125 L18.2601539,30.0198849 L21.6335443,28.2501538 L21.6335443,28.2501538 C22.489178,27.8013537 23.5106495,27.8013537 24.3662832,28.2501538 L27.7396735,30.0198849 L27.7397017,30.0198849 Z M22.5795162,30.0485977 L17.1807717,32.8808726 C16.7387408,33.112747 16.1921818,32.9428675 15.9599971,32.5014289 L15.9599972,32.501429 C15.8676355,32.3258696 15.8357341,32.1247551 15.8692331,31.9292315 L16.8980717,25.926192 L16.8980717,25.9261921 C16.9482198,25.6334341 16.8510495,25.3347502 16.638246,25.1275356 L12.2727965,20.8749348 C11.9153811,20.5267425 11.9082452,19.955109 12.2568888,19.5981449 L12.2568889,19.5981448 C12.3956412,19.4561309 12.5772682,19.3637173 12.7737479,19.3351602 L18.808349,18.4573036 L18.808349,18.4573036 C19.1024608,18.4146024 19.3567922,18.2300664 19.4886286,17.9637138 L22.1893829,12.5032 C22.4105111,12.0561487 22.9526702,11.8727307 23.4003139,12.0935769 L23.4003139,12.0935769 C23.578325,12.1813555 23.7224786,12.32531 23.8105012,12.5032 L26.5112555,17.9637138 L26.5112554,17.9637137 C26.6430859,18.2300587 26.8974063,18.4145925 27.1915068,18.4573035 L33.2261361,19.3351601 C33.7202054,19.4070268 34.0624183,19.8653038 33.9904388,20.3587244 L33.9904388,20.3587243 C33.9617894,20.5550661 33.869232,20.7364925 33.7270875,20.8749346 L29.361638,25.1275071 L29.3616379,25.1275072 C29.1488347,25.3347204 29.0516635,25.6334057 29.1018123,25.9261637 L30.1306509,31.9292032 C30.2148714,32.4207059 29.8841944,32.8873316 29.3920713,32.9714675 L29.3920714,32.9714675 C29.1963151,33.0049371 28.9949854,32.9730932 28.8191123,32.8808444 L23.4203678,30.0485696 L23.4203679,30.0485696 C23.1570938,29.910475 22.8427916,29.910475 22.5795165,30.0485695 L22.5795162,30.0485977 Z" id="形状" stroke="#34D5A5" fill="#34D5A5"></path>
                </g>
            </g>
        </g>
    </g>
</svg>