<?xml version="1.0" encoding="UTF-8"?>
<svg width="30px" height="30px" viewBox="0 0 30 30" version="1.1" xmlns="http://www.w3.org/2000/svg" xmlns:xlink="http://www.w3.org/1999/xlink">
    <!-- Generator: Sketch 60 (88103) - https://sketch.com -->
    <title>fz1</title>
    <desc>Created with Sketch.</desc>
    <g id="波霎APP1.0" stroke="none" stroke-width="1" fill="none" fill-rule="evenodd">
        <g id="切图" transform="translate(-2318.000000, -930.000000)" fill="#FFEAEA" fill-rule="nonzero">
            <path d="M2347.99851,935.629301 L2347.99851,949.257872 C2347.99851,952.371453 2345.62005,954.889282 2342.59019,954.889282 C2342.01165,957.777852 2339.48749,960 2336.45977,960 L2324.27397,960 C2320.81128,960 2318,957.111431 2318,953.556422 L2318,941.556434 C2318,938.29716 2320.30774,935.629301 2323.33546,935.185718 C2323.55188,932.297148 2325.93247,930 2328.8166,930 L2342.58805,930 C2345.62004,930 2348.0692,932.517885 2347.99851,935.629301 Z M2340.56958,941.556434 C2340.56958,939.259295 2338.69468,937.335022 2336.45979,937.335022 L2324.27398,937.335022 C2322.03909,937.335022 2320.16418,939.259306 2320.16418,941.556434 L2320.16418,953.481422 C2320.16418,955.778562 2322.03909,957.702834 2324.27398,957.702834 L2336.53051,957.702834 C2338.76754,957.702834 2340.56958,955.77855 2340.56958,953.481422 L2340.56958,941.556434 Z M2345.90504,949.26001 L2345.90504,935.63144 C2345.90504,933.777869 2344.39225,932.222166 2342.58806,932.222166 L2328.81661,932.222166 L2328.81661,932.222166 C2327.16385,932.236109 2325.77636,933.470721 2325.57035,935.110735 L2336.45981,935.110735 C2339.92036,935.110735 2342.73378,937.999305 2342.73378,941.556452 L2342.73378,952.667163 C2344.53583,952.517164 2345.90504,951.111451 2345.90504,949.260028 L2345.90504,949.26001 Z" id="fz1"></path>
        </g>
    </g>
</svg>