<?xml version="1.0" encoding="UTF-8"?>
<svg width="46px" height="46px" viewBox="0 0 46 46" version="1.1" xmlns="http://www.w3.org/2000/svg" xmlns:xlink="http://www.w3.org/1999/xlink">
    <!-- Generator: Sketch 60 (88103) - https://sketch.com -->
    <title>sy</title>
    <desc>Created with Sketch.</desc>
    <g id="波霎APP1.0" stroke="none" stroke-width="1" fill="none" fill-rule="evenodd">
        <g id="切图" transform="translate(-223.000000, -676.000000)">
            <g id="sy" transform="translate(223.000000, 676.000000)">
                <g id="首页">
                    <path d="M23,1.95 C11.374406,1.95 1.95,11.374406 1.95,23 C1.95,34.625594 11.374406,44.05 23,44.05 C34.625594,44.05 44.05,34.625594 44.05,23 C44.05,11.374406 34.625594,1.95 23,1.95 Z" id="椭圆形" stroke="#FF6D6D" stroke-width="3.5"></path>
                    <path d="M23,13.2 C27.8312644,13.2 31.6634546,17.4827785 31.7964305,22.7186159 L31.8,23 L31.8,31 C31.8,31.9941125 30.9941125,32.8 30,32.8 C29.0555931,32.8 28.2810593,32.0726866 28.2059669,31.147628 L28.2,31 L28.2,23 C28.2,19.5263434 25.8144495,16.8 23,16.8 C20.2510028,16.8 17.9111878,19.4010112 17.8038459,22.7588893 L17.8,23 L17.8,31 C17.8,31.9941125 16.9941125,32.8 16,32.8 C15.0555931,32.8 14.2810593,32.0726866 14.2059669,31.147628 L14.2,31 L14.2,23 C14.2,17.6371006 18.082463,13.2 23,13.2 Z" id="路径" fill="#34D5A5" fill-rule="nonzero"></path>
                </g>
            </g>
        </g>
    </g>
</svg>