<?xml version="1.0" encoding="UTF-8"?>
<svg width="260px" height="203px" viewBox="0 0 260 203" version="1.1" xmlns="http://www.w3.org/2000/svg" xmlns:xlink="http://www.w3.org/1999/xlink">
    <!-- Generator: Sketch 60 (88103) - https://sketch.com -->
    <title>mdpi/icon_Wallet_create</title>
    <desc>Created with Sketch.</desc>
    <defs>
        <linearGradient x1="50%" y1="100%" x2="50%" y2="0.329919764%" id="linearGradient-1">
            <stop stop-color="#ECB9B9" offset="0%"></stop>
            <stop stop-color="#E37878" offset="100%"></stop>
        </linearGradient>
        <linearGradient x1="50%" y1="50%" x2="50%" y2="107.284608%" id="linearGradient-2">
            <stop stop-color="#E2E2E2" offset="0%"></stop>
            <stop stop-color="#FFFFFF" offset="100%"></stop>
        </linearGradient>
    </defs>
    <g id="页面-1" stroke="none" stroke-width="1" fill="none" fill-rule="evenodd">
        <g id="请先创建钱包" transform="translate(-247.000000, -405.000000)">
            <g id="icon_Wallet_create" transform="translate(239.000000, 357.000000)">
                <g id="undraw_wallet_aym5-(2)" transform="translate(0.000000, 0.937333)">
                    <path d="M149.65569,161.471163 C151.809527,161.767823 154.044581,161.956289 156.107457,161.237325 C156.432319,161.129131 156.789668,160.888313 156.757182,160.539301 C156.733952,160.412478 156.683939,160.293076 156.610994,160.190289 C155.833384,158.937329 155.180093,157.600296 154.661819,156.201081 C154.641279,156.128106 154.599062,156.064363 154.54162,156.019595 C154.47445,155.993468 154.400879,155.993468 154.333708,156.019595 C153.381861,156.288334 152.55996,156.947967 151.61461,157.230667 C151.132602,157.372732 150.629526,157.41303 150.133237,157.349331 C149.704419,157.296979 149.119667,156.916556 148.729832,156.965418 C148.950738,158.4906 149.49001,159.914569 149.65569,161.471163 Z" id="路径" fill="#488CFF" fill-rule="nonzero"></path>
                    <path d="M186.478112,158.294118 C187.792388,157.383754 189.154783,156.427871 189.930717,155.022876 C189.986114,154.938844 190.018297,154.841425 190.02395,154.740663 C190.010716,154.641495 189.972392,154.547438 189.912672,154.467554 C189.173547,153.281963 188.221982,152.245687 187.106679,151.411765 C186.524761,151.826532 185.999016,152.316199 185.542781,152.868347 C185.211957,153.220355 184.297678,153.778711 184.288655,154.315826 C184.288655,154.619281 184.637525,154.971289 184.79993,155.22619 C185.019477,155.553922 185.226994,155.887722 185.425489,156.227591 C185.539774,156.394491 186.583375,158.227358 186.478112,158.294118 Z" id="路径" fill="#488CFF" fill-rule="nonzero"></path>
                    <path d="M157.889488,165.640897 C157.913259,165.932159 157.827141,166.222026 157.645905,166.460776 C157.503768,166.59352 157.327816,166.690768 157.134382,166.743493 C154.311871,167.682113 151.044821,166.511665 148.228399,167.43615 C147.649891,167.62557 147.10183,167.899805 146.520277,168.080744 C145.826961,168.274292 145.111661,168.391947 144.388931,168.431313 C143.393287,168.518956 142.391555,168.575499 141.392867,168.600944 C140.634065,168.650829 139.871543,168.588805 139.133639,168.417177 C138.38738,168.239821 137.757506,167.776253 137.401159,167.142124 C137.248066,166.861064 137.217532,166.536029 137.315905,166.234602 C137.360061,166.131247 137.422872,166.035638 137.501637,165.951885 C137.692508,165.753061 137.916635,165.584093 138.165399,165.451476 L139.203669,164.829499 C139.690537,164.509819 140.219575,164.249478 140.777821,164.054854 C141.188866,163.930459 141.62427,163.876743 142.041405,163.772137 C143.499855,163.376334 144.614244,162.302009 145.64947,161.270092 L147.062248,159.870643 C147.194327,159.716662 147.361817,159.592054 147.552458,159.505938 C147.748402,159.445263 147.95667,159.426892 148.161414,159.452222 C149.533752,159.543201 150.85888,159.955611 152.013061,160.650942 C152.308047,160.856398 152.626649,161.030863 152.963033,161.171141 C153.791213,161.470821 154.853841,161.244648 155.618081,160.865807 C155.98041,160.684868 155.901246,160.58309 156.053485,160.260793 C156.205724,159.938495 156.577187,159.732112 156.899934,160.026137 C156.997311,160.127816 157.066315,160.250137 157.10089,160.382361 C157.405368,161.315327 157.289666,162.318972 157.289666,163.297173 C157.280734,163.450121 157.301357,163.603319 157.350562,163.74952 C157.428255,163.896922 157.52104,164.037041 157.627637,164.167941 C157.649334,164.202587 157.668656,164.238469 157.685487,164.275374 C157.871742,164.708452 157.941754,165.177096 157.889488,165.640897 Z" id="路径" fill="#514E7F" fill-rule="nonzero"></path>
                    <path d="M157.886057,165.116164 C157.909825,165.346534 157.823721,165.575801 157.642515,165.764637 C157.500402,165.86963 157.324479,165.946547 157.131077,165.988249 C154.309035,166.730639 151.042529,165.804887 148.226575,166.536097 C147.648163,166.685917 147.100193,166.90282 146.518737,167.045932 C145.825536,167.199016 145.110355,167.292073 144.387745,167.32321 C143.392267,167.392529 142.390701,167.437252 141.392179,167.457377 C140.633504,167.496833 139.871108,167.447776 139.133328,167.312029 C138.387192,167.171751 137.757423,166.805098 137.401136,166.303541 C137.248068,166.081241 137.217539,165.824158 137.315896,165.585748 C137.360044,165.504 137.422844,165.42838 137.501597,165.362137 C137.665987,165.614818 137.784714,165.950235 137.88822,166.070985 C138.171102,166.432994 138.652493,166.688007 139.209435,166.770889 C139.62149,166.789473 140.03462,166.750782 140.427144,166.656847 C142.984335,166.191735 145.702872,166.185027 148.159601,165.480651 C149.002865,165.236914 149.806553,164.912677 150.692437,164.765094 C151.578321,164.61751 152.519002,164.65776 153.432284,164.601857 C154.87527,164.516885 156.272592,164.19712 157.694268,164.029412 C157.877842,164.374764 157.943683,164.747846 157.886057,165.116164 L157.886057,165.116164 Z" id="路径" fill="#464353" fill-rule="nonzero"></path>
                    <path d="M194.588744,157.639323 C194.454374,158.75621 193.773358,159.717622 193.025156,160.533077 C192.276955,161.348531 191.431029,162.081489 190.835521,163.020689 C190.102589,164.185171 189.77277,165.628875 188.819958,166.612498 C188.45421,166.970196 188.043243,167.274429 187.598405,167.516796 C187.10008,167.822274 186.573112,168.074239 186.025655,168.268791 C184.602545,168.741564 183.069495,168.633683 181.582254,168.519456 C181.0994,168.514634 180.621382,168.418957 180.17136,168.237061 C179.966493,168.128928 179.770402,168.003714 179.585014,167.86265 C179.212207,167.624126 178.898421,167.298103 178.668849,166.910757 C178.55612,166.700148 178.524471,166.452954 178.580286,166.219049 C178.665275,165.961399 178.811246,165.730086 179.004776,165.546378 C179.339445,165.184778 179.698693,164.848634 180.079743,164.540545 C180.602583,164.189975 181.073714,163.76246 181.478422,163.271355 C181.726719,162.883286 181.909518,162.454073 182.018959,162.002164 C182.235277,161.210449 182.367383,160.396476 182.41291,159.574838 C182.411238,159.028884 182.465495,158.484296 182.574766,157.950275 C182.800754,157.112609 183.399315,156.363787 183.332129,155.497564 C183.30495,155.373526 183.315624,155.243773 183.362668,155.126326 C183.433762,155.034553 183.532881,154.970747 183.643625,154.945467 C184.110317,154.752203 184.602478,154.633457 185.103382,154.593266 C185.612161,154.556805 186.109841,154.759447 186.459306,155.145364 C186.66697,155.405548 186.804395,155.779959 187.109783,155.881494 C187.261111,155.924404 187.419861,155.930915 187.573974,155.900532 C188.325229,155.821208 189.119239,155.722846 189.711692,155.218343 C190.265293,154.702435 190.586342,153.969733 190.597319,153.197157 C190.597319,152.908416 190.472109,152.606984 190.902707,152.562562 C191.226419,152.51814 191.482945,152.87986 191.647855,153.101968 C192.243362,153.930115 192.854139,154.796337 193.077072,155.805343 C193.163771,155.770381 193.25587,155.752103 193.348868,155.751402 C193.73547,155.747867 194.099293,155.941021 194.323057,156.268598 C194.566263,156.677905 194.660504,157.164111 194.588744,157.639323 L194.588744,157.639323 Z" id="路径" fill="#514E7F" fill-rule="nonzero"></path>
                    <path d="M194.587643,157.719238 C194.452307,158.711298 193.766398,159.565259 193.01282,160.289576 C192.259243,161.013893 191.407239,161.664933 190.807453,162.499165 C190.069255,163.533501 189.737065,164.815852 188.777408,165.689541 C188.409032,166.007262 187.995112,166.277493 187.547077,166.492772 C187.045171,166.764109 186.514417,166.987913 185.963027,167.160722 C184.529692,167.580656 182.985627,167.484832 181.4877,167.383371 C181.001376,167.379088 180.519924,167.294104 180.066668,167.132538 C179.860329,167.03649 179.662829,166.92527 179.476109,166.799972 C179.100623,166.588106 178.784583,166.298521 178.553361,165.954466 C178.841686,165.827444 179.156274,165.758263 179.476109,165.751545 C180.140488,165.785365 180.626468,166.360309 181.263164,166.537865 C182.170533,166.788699 183.074826,166.202481 183.994498,166.002378 C184.594284,165.872734 185.224828,165.906554 185.818463,165.720543 C186.313173,165.545357 186.770274,165.291574 187.168751,164.970861 C187.714916,164.613055 188.20093,164.183867 188.611313,163.696965 C188.952126,163.210035 189.23566,162.69138 189.457165,162.149689 C189.942844,161.111579 190.514569,160.109073 191.167325,159.150961 C191.263874,158.999266 191.380625,158.859153 191.514893,158.733845 C191.659457,158.612656 191.822476,158.528105 191.985494,158.421008 C192.60066,157.995437 192.855953,157.293667 193.071261,156.605988 C193.129589,156.396969 193.211006,156.193939 193.314251,156 C193.703631,155.996902 194.070069,156.168468 194.29544,156.459434 C194.56009,156.83159 194.664241,157.280628 194.587643,157.719238 L194.587643,157.719238 Z" id="路径" fill="#464353" fill-rule="nonzero"></path>
                    <g id="编组-4" transform="translate(111.264706, 47.029412)" fill-rule="nonzero">
                        <path d="M8.86726477,15.7420168 C9.6494129,16.324183 10.2930844,17.0700939 10.7526655,17.9268908 C11.1925923,18.7821128 13.7284563,25.4178872 13.5807666,26.3823529 C14.4072006,25.5552221 17.6658015,25.4210084 18.5016625,24.5938776 C18.8504616,24.247419 20.73272,22.5182473 21.0155301,22.1156062 C21.2983402,21.7129652 23.3974197,20.8671068 23.6268101,20.442617 C24.4846674,18.9163265 17.5432504,13.1326531 18.4325311,11.62509 C18.4817317,11.5558222 18.5070822,11.4726174 18.5048048,11.3878752 C18.4845555,11.3167189 18.4442086,11.2528137 18.3885384,11.2037215 C17.8197759,10.6262905 17.0656156,10.2673469 16.3805867,9.83973589 C15.6955577,9.41212485 15.0356675,8.81596639 14.8502697,8.02941176 C14.1970087,8.3281021 13.5972951,8.73085136 13.0748507,9.22172869 C11.8011578,10.3058423 10.5494612,11.4118047 9.31976094,12.5396158 C8.83898376,12.9828331 7.90885273,13.5727491 7.68574698,14.2063625 C7.42179088,14.8867947 8.40848392,15.3705882 8.86726477,15.7420168 Z" id="路径" fill="#FDE1CE"></path>
                        <path d="M20.5489148,12.8537028 C21.0139386,13.092341 21.4208345,13.5753677 21.3162042,14.0813957 L24.7254102,14.1331485 C25.2680349,14.1184631 25.810499,14.1676866 26.3413681,14.2797816 C26.8756463,14.3948543 27.3525863,14.6907546 27.6899373,15.1164529 C27.7306268,15.1710809 27.7771292,15.2372096 27.8468828,15.2458351 C27.9036197,15.2467076 27.9589681,15.2284565 28.0038284,15.1940822 C28.5282761,14.9338822 29.119084,14.8338039 29.7011654,14.9065663 C31.5438224,15.0244478 33.2469722,15.9358732 34.6914526,17.0744362 C34.9519349,17.2515779 35.1540654,17.5005254 35.2727324,17.7903508 C35.3918947,18.172747 35.2494812,18.6528985 35.5633723,18.9260386 C35.5633723,22.0887135 36.6619911,25.044377 37.3944037,28.1265475 C37.5251916,28.6757028 38.0570627,29.1616047 38.4261753,29.5928786 C38.8822209,30.0709963 39.2544992,30.6209823 39.5277006,31.2202186 C40.14967,32.818807 39.2922823,34.699161 39.8968133,36.3034997 C40.1525764,36.9820372 40.6466642,37.5398181 41.0593729,38.1292257 C41.6034138,38.8098106 41.947334,39.6255511 42.0533613,40.4868561 C42.0795189,40.8721274 42.0301102,41.2602739 42.0533613,41.6369197 C42.0923508,42.154957 42.1898378,42.6670487 42.3440012,43.1636291 C42.592014,44.0913471 42.8516523,45.0181067 43.1229162,45.9439079 C43.5646888,47.4389906 44.1401559,49.0519548 45.4945378,49.8483739 C42.9719584,50.2720484 40.343853,50.6888775 37.8437849,50.3410082 C40.4337783,53.1186204 43.8765345,56.5097252 43.0848601,56.9838764 C39.1154059,59.3642486 27.1833095,61.9591225 22.7006148,63.0882353 C21.2380282,59.0276002 16.4972301,47.8109524 15.0346434,43.7532966 C14.3315338,41.8287403 13.6343576,39.8922672 13.2546191,37.8842936 C13.052883,36.820723 12.9460815,35.7541732 12.5485427,34.7174153 C12.151004,33.6806575 11.0651891,32.9150058 11.0827731,31.8037682 C11.101642,30.6561784 11.2157629,29.5121611 11.4241607,28.3836588 L11.4540565,28.2142787 C11.0460199,27.5049664 10.6813533,26.7659024 10.3626278,26.0020046 C9.92577975,24.9460271 9.82057716,23.75911 10.0637101,22.6295536 C10.1432387,22.3477585 10.2529332,22.044753 10.3160076,21.7417475 C10.4778071,20.9569633 10.3132653,20.1358184 10.3873091,19.335884 C10.4293636,18.7032374 10.727644,18.1253733 11.199049,17.7632855 C11.3851812,17.635699 11.5794908,17.5232885 11.7804303,17.4269494 C12.1780732,17.2178756 12.0656362,17.0481926 12.3974623,17.4481598 C13.2009751,18.4147473 13.3298663,20.2812611 13.5739367,21.493283 C13.6890225,22.0676907 13.8199128,22.6369069 13.9635169,23.2019594 C14.2743792,22.6468439 14.516927,22.0675761 14.613371,21.4332101 C14.6816052,20.9833526 14.6697384,20.533495 14.7528062,20.0895958 C14.9486089,18.960483 15.7199528,18.0250176 16.5328305,17.2176572 C17.2711681,16.4845055 18.0669961,15.8125602 18.9124875,15.2082524 L19.3197143,14.9246471 L19.229562,14.9876471 L19.0501413,14.7969176 C18.6208704,14.3212605 18.2560018,13.7917654 17.9651261,13.2217231 C18.6663901,12.5818721 19.6936625,12.4355532 20.5489148,12.8537028 Z" id="形状结合" fill="url(#linearGradient-1)"></path>
                        <circle id="椭圆形" fill="#FFDEC8" cx="9.93571429" cy="9.17647059" r="6.88235294"></circle>
                        <path d="M14.9056216,28.0716923 C15.3388897,30.5693594 15.7856133,33.0611565 16.2296459,35.5588235 L22.5483632,33.7538115 C22.5994942,33.0318067 22.2469593,32.3626315 22.0101419,31.6993262 C21.4342452,30.1232426 21.4207897,28.3681252 20.9552283,26.7480168 C20.6026934,25.5153256 19.9891212,24.3824238 19.6581151,23.1409277 C19.4670466,22.4189229 19.3701668,21.6734382 19.1817893,20.9426285 C18.9797525,20.2249505 18.7315549,19.5237073 18.439044,18.8441185 C18.0843558,17.8585229 17.6217174,16.9233065 17.0611977,16.0588235 C16.2538658,16.3875412 15.3927118,16.7690884 14.9325327,17.5644677 C14.6965024,18.0126298 14.5618137,18.5156929 14.5396312,19.0319572 C14.4292958,20.5786911 14.9432971,22.1342299 14.7737574,23.6721589 C14.5991428,25.1367907 14.6436767,26.6226242 14.9056216,28.0716923 Z" id="路径" fill="#595151"></path>
                        <path d="M23.030354,62.1019457 C23.426763,63.5865817 22.8531713,65.1484188 22.384688,66.6182085 C21.6793528,68.8320858 21.198492,71.1098434 20.9492071,73.4178415 C20.9186332,74.0051992 20.7991842,74.5847075 20.5948416,75.1370501 C20.3726123,75.6329185 19.994222,76.0515859 19.7359556,76.5237001 C19.0272244,77.7648559 19.045243,79.2791846 19.198401,80.6984967 C19.3005064,81.6338174 19.4536644,82.5661688 19.6428595,83.4866432 C19.8740981,84.6119973 20.1593924,85.787829 19.8260485,86.8864597 C20.3846247,86.7647195 20.7630151,87.4803141 20.7269779,88.0415065 C20.6909407,88.6026989 20.5077517,89.2292154 20.7810337,89.7132067 C21.4717462,89.9626256 21.4777524,90.9009155 21.4567307,91.6283872 C21.4681842,92.8897815 21.6294544,94.1454796 21.9372264,95.36967 C22.9823045,100.338252 24.0914487,105.292977 25.2646589,110.233846 C27.8022767,111.011795 30.7663344,111.822407 33.1868314,110.744561 C33.6372961,110.54562 34.0877608,110.227907 34.1898661,109.746885 C34.2162493,109.487635 34.1834081,109.225835 34.093767,108.980813 L32.9465835,104.853525 C32.6672954,103.85585 32.3880073,102.825512 32.5351591,101.801113 C32.6462737,101.03801 32.9826207,100.215522 32.6042304,99.5414973 C32.4750972,99.3098941 32.2708865,99.1287685 32.1207316,98.9090423 C31.520112,98.0390456 31.8354373,96.875091 31.8834869,95.8209994 C31.9022222,95.5843797 31.8860361,95.3463237 31.8354373,95.1143126 C31.7531641,94.8433465 31.6382206,94.5831505 31.4930841,94.3393326 C30.5450074,92.5194689 30.0897738,90.4878543 30.171721,88.4423583 C30.2075982,88.1813299 30.1712752,87.9155672 30.0666126,87.6733168 C29.9937521,87.5733268 29.9285054,87.468123 29.8714112,87.3585739 C29.8266389,87.1679373 29.8488822,86.9679076 29.9344763,86.791443 C29.5902984,86.5332357 29.2796362,86.2340509 29.0095221,85.9006614 C29.3470206,85.6932323 29.5694426,85.344011 29.6128122,84.9534451 C29.6561819,84.5628792 29.5156917,84.1742617 29.2317513,83.899372 C29.4815029,83.8496465 29.6817362,83.6652553 29.7496279,83.4224691 C29.8175195,83.1796828 29.7415268,82.9197793 29.5530828,82.7502637 C29.405931,82.6493084 29.2107297,82.6047694 29.1056212,82.4533365 C28.9434539,82.2336103 29.0755903,81.9277753 29.2077266,81.6932028 L29.9074484,80.4431393 C30.4299874,79.5137571 30.5471083,78.3646488 31.1086876,77.4738672 C31.9135178,76.1762953 32.43906,74.7302598 32.9585959,73.2990707 L34.9796809,67.7851324 L36.3400842,68.9520563 C36.7932041,69.2943321 37.1729539,69.7222898 37.4572367,70.2110277 C37.6506686,70.6940637 37.7730392,71.2020311 37.8206115,71.7194179 C38.3191258,74.7124442 40.2230899,77.307588 40.9288179,80.2560751 C41.084979,80.9122843 41.1900875,81.6011554 41.5714809,82.1623478 C41.7079619,82.3346436 41.8304687,82.5173268 41.9378589,82.7086939 C42.0372623,83.0006043 42.0889637,83.3063166 42.0910169,83.6143219 C42.2184616,84.834639 42.8760443,85.939938 43.8928756,86.6429794 C44.5625665,87.097278 45.3944246,87.4090516 45.7577995,88.1276154 C45.8304763,88.3501317 45.9313836,88.5626433 46.0581093,88.7600704 C46.3824439,89.1460757 47.0821657,89.1906148 47.2203082,89.6746062 C47.2983887,89.9448099 47.15424,90.2684606 47.307398,90.5060023 C47.3944326,90.6159365 47.5094824,90.7009958 47.6407419,90.7524519 L49.5957587,91.7174654 C51.782014,92.7982804 52.8991665,95.2805918 54.5118301,97.0888785 C55.0687447,97.6778416 55.5619258,98.3227022 55.9833481,99.0129668 C56.6800668,100.245215 57.0013983,101.792206 58.1786127,102.576093 C58.4950667,102.738328 58.7830438,102.949873 59.0314925,103.20261 C59.4008736,103.683632 59.2657342,104.357657 59.2987682,104.963388 C59.3318023,105.56912 59.8002856,106.290653 60.3828866,106.106558 C60.1787325,106.840193 60.1787325,107.614723 60.3828866,108.348358 C62.9406137,108.218454 65.3797947,107.241639 67.3080305,105.575058 C67.8786191,105.082159 68.4281861,104.452673 68.4341923,103.704417 C68.4429539,103.575268 68.4137518,103.44637 68.3501055,103.333258 C68.2346466,103.187105 68.0824278,103.073459 67.9086501,103.003669 C66.0797634,102.023809 65.5301965,99.7523156 64.6052423,97.9083976 C63.797409,96.2812365 62.602176,94.8797401 61.6021444,93.3683806 C59.4279014,90.1170277 57.944371,86.1827422 54.6559788,84.0359585 C53.9322322,83.5638442 53.0913647,83.1451769 52.7279899,82.3642583 C52.5267823,81.9277753 52.5027575,81.4289376 52.3435933,80.9776083 C52.1844291,80.5262789 51.8030357,80.0868266 51.3165338,80.0868266 C51.5868126,79.4335868 51.5327569,78.6378219 51.5507755,77.9311351 C51.5692372,77.6174941 51.5326602,77.30306 51.4426639,77.0017529 C51.3177364,76.6776088 51.1555033,76.3687531 50.9591652,76.0812786 C50.1011923,74.6449962 49.6722108,72.9978133 49.7218888,71.3304433 C49.7459136,70.4723236 49.8990716,69.5874806 49.6378021,68.7679615 C49.5056657,68.3552327 49.2744272,67.9781351 49.115263,67.5802526 C48.8754238,66.8593051 48.7488232,66.1062549 48.7398758,65.34736 L48.5596899,62.4938896 C48.5324816,61.5435788 48.4077132,60.5984583 48.1873057,59.6730811 C47.5866861,57.4580041 46.9860666,48.1790289 44.9289444,47.1338451 C42.8718223,46.0886614 39.337176,53.2297607 37.0217875,53.3693165 C35.9974845,53.4114703 34.98529,53.6046234 34.0186895,53.942386 C32.4781003,54.5124862 31.1867681,55.5754856 29.9284701,56.6147309 L25.6700772,60.1511339 C24.7691478,60.8845441 24.0243795,61.5852923 23.030354,62.1019457 Z" id="路径" fill="#595151"></path>
                        <path d="M2.57043201,1.89648541 C3.50991603,0.69510656 5.12390139,0.0577553387 6.71379741,0.00417271383 C8.30369344,-0.049409911 9.86950013,0.418733022 11.293782,1.08146549 C11.7141815,1.30536454 12.1634971,1.47785916 12.63074,1.59473063 C13.3835317,1.73855768 14.220636,1.54678828 14.9011597,1.87674445 C15.8045097,2.32514641 15.9791574,3.46730236 15.9008671,4.41486878 C15.8225767,5.3624352 15.6328732,6.41434673 16.1718721,7.23500693 C16.3630771,7.46905148 16.5371201,7.71496735 16.6928039,7.97106299 C16.9246637,8.45894689 16.7891612,9.02297452 16.6506476,9.5390598 C16.2983411,9.25704598 16.0996041,8.83120512 15.7864427,8.5040691 C15.4732814,8.17693307 14.9282602,7.9569623 14.5398197,8.20231431 C14.1513792,8.44766633 14.1574015,8.89324816 14.1363234,9.29370778 C14.1152452,9.6941674 14.0068432,10.1735909 13.6033469,10.3033172 C13.2585089,10.3768016 12.9006632,10.2460955 12.6999968,9.97336107 C12.0104397,9.18372239 12.287467,7.92312064 11.6039322,7.12784168 C11.2154917,6.67661958 10.5680908,6.4566488 10.209762,5.98286559 C9.9267123,5.61060735 9.8544443,5.13682415 9.60752862,4.73636453 C9.36061295,4.33590491 8.78548011,4.04261054 8.40306194,4.31898408 C8.27254961,4.43576463 8.16366794,4.57204791 8.0808671,4.72226384 C7.58992608,5.38080899 6.68043386,5.63751403 5.8827154,5.34269423 C5.58662423,5.17244779 5.26626155,5.04236766 4.93118672,4.9563353 C4.48377946,4.93535555 4.0624233,5.15398453 3.84415553,5.52036293 C3.62804294,5.87919399 3.52372003,6.28759947 3.54303886,6.69918068 C3.54303886,7.26320831 3.65144086,7.86389774 3.30816786,8.31511984 C3.17762647,8.4849823 3.01420137,8.63038684 2.82638118,8.74378084 C2.32351634,9.04553562 1.6219145,9.24858557 1.15819482,8.90452871 C0.838539746,8.62571124 0.697051678,8.21107674 0.784810149,7.81031511 C0.875095228,7.41779097 0.993808933,7.03147889 1.14012782,6.65405847 C1.40511049,5.77981564 1.05882632,4.79558743 1.34789833,3.97210709 C1.65067899,3.23049091 2.0621327,2.53192347 2.57043201,1.89648541 L2.57043201,1.89648541 Z" id="路径" fill="#595151"></path>
                        <path d="M7.66243894,22.2572204 C7.62065563,22.4809303 7.64201506,22.7133962 7.72363977,22.9233011 C7.8063125,23.066251 7.91888866,23.185204 8.0518988,23.2701542 C8.98739276,23.9131954 10.0513842,24.293641 11.1508865,24.3782423 C11.300494,24.3810885 11.4473403,24.4231743 11.5792924,24.5010222 C11.8407868,24.691331 11.857478,25.1149215 11.760113,25.452566 C11.6302987,25.7710728 11.5629892,26.1162676 11.5626012,26.4654998 C11.6432751,27.1070246 12.3331754,27.3863487 12.9145833,27.4815031 C13.7296671,27.5950745 14.622643,27.5367541 15.2680336,26.9750362 C15.7052239,26.5350632 16.0384893,25.9840031 16.2389014,25.3696896 C17.8356868,21.321024 18.3948399,16.8456983 20.0110983,12.8093106 C20.1335786,12.5457555 20.2153741,12.2615105 20.2531198,11.9682686 C20.2878899,11.6693339 20.1728434,11.3731357 19.9526793,11.1947556 C19.6522388,10.9890993 19.184887,11.1057402 18.9818115,10.7834431 C18.8816647,10.6207598 18.8927921,10.399756 18.8037727,10.2278642 C18.6173884,9.86259416 18.1277817,9.92091459 17.7939589,9.70911935 C17.5324645,9.55564453 17.3516438,9.23948641 17.0595489,9.17809648 C16.7688059,9.15997061 16.487344,9.29420736 16.3001022,9.54029705 C15.3514893,10.5163969 14.853537,11.9007397 14.3249844,13.2083452 C13.5179026,15.2127017 12.5730232,17.1459872 11.4986185,18.9912763 C11.6238021,18.7764115 10.8977376,17.1495785 10.6139883,17.07898 C10.116036,16.9684782 9.47899099,17.9323 9.20915095,18.2914311 C8.36237228,19.4242302 7.82583264,20.7999247 7.66243894,22.2572204 L7.66243894,22.2572204 Z" id="路径" fill="#595151"></path>
                        <path d="M17.9651261,10.3235294 C17.5160762,10.3308924 17.0947802,10.5385693 16.8201247,10.8879552 C16.4898952,11.3097572 16.4250838,11.8681139 16.3417549,12.4052288 C16.0608366,14.1069062 15.4432478,15.7379001 14.5239496,17.2058824" id="路径" fill="#000000" opacity="0.1"></path>
                        <path d="M19.1121849,10.3235294 C18.4764906,10.3376575 17.8954672,10.6855071 17.5838235,11.2385352 C17.375216,11.7331122 17.2454941,12.2572276 17.1993697,12.791844 C16.9291851,13.9771122 16.4080773,15.0910166 15.6710084,16.0588235" id="路径" fill="#000000" opacity="0.1"></path>
                        <path d="M44.3315617,45.3336253 C43.7671902,45.8600472 43.2454145,46.4346389 42.7715975,47.0514944 C42.2946428,47.6769172 42.0407927,48.4573002 42.0538404,49.2580154 C42.0563663,49.4902293 42.1271113,49.7159778 42.2564331,49.9044927 C42.391914,50.0894515 42.6244198,50.1638187 42.8352695,50.089634 C42.9515689,50.0274577 43.051093,49.9356121 43.1246877,49.8225448 C43.4305917,49.437074 43.7551674,49.0683292 44.0971329,48.7177668 C44.2215828,48.5872573 44.3865511,48.4506776 44.5544137,48.4992393 C44.629662,48.5272379 44.6972301,48.5741293 44.7512181,48.635819 C44.9459343,48.8123452 45.0876808,49.0442788 45.1592977,49.303542 C45.2605941,49.767913 45.0030119,50.232284 44.7106995,50.5964965 C44.4183871,50.960709 44.0739795,51.309746 43.955318,51.7680468 C43.9104171,51.8890793 43.9104171,52.0233673 43.955318,52.1443998 C44.0112598,52.2319626 44.0894594,52.3013534 44.1810642,52.3447167 C45.0201128,52.8291594 46.0209119,52.8980904 46.9131721,52.5328932 C47.4920085,52.2870497 48.0071729,51.8651702 48.6033744,51.6466426 C48.8615299,51.5725599 49.1117436,51.4708557 49.3500734,51.3431322 C49.6945534,51.1027064 49.9331602,50.7279154 50.0128411,50.3020914 C50.0880716,49.8808277 50.1027048,49.4501226 50.0562538,49.0243124 C49.9840747,47.3755137 49.6474971,45.7512541 49.0606552,44.219742 C49.0266714,44.120963 48.9688334,44.0331189 48.8927926,43.9647932 C48.8057287,43.9091343 48.7053198,43.8807038 48.6033744,43.8828454 C47.8624638,43.8008975 46.6469073,43.4032989 45.9320444,43.6916338 C45.6820133,43.835392 45.4663002,44.0367039 45.3011127,44.280444 C45.1679803,44.4352344 44.3315617,45.1302733 44.3315617,45.3336253 Z" id="路径" fill="#FFDEC8"></path>
                        <path d="M43.9795208,44.8922575 C43.9795208,44.16941 43.0518528,42.4245035 44.5268449,42.3089664 C44.5268449,41.5357565 43.3858132,41.0558332 43.5991769,40.2352235 C43.6672059,39.9626745 43.9083996,39.7404877 43.9362296,39.4620137 C44.0289964,38.6710289 42.5385431,38.2414679 42.7859213,37.4830705 C42.8786881,37.1868215 43.2064641,37.0149971 43.2775853,36.7217106 C43.4445656,36.0373754 42.1674759,35.732239 42.1427381,35.0301289 C42.1427381,34.7931297 42.2818883,34.570943 42.2695194,34.3339438 C42.2695194,34.0376948 42.0004957,33.8125456 41.8520688,33.554809 C41.4655405,32.8941738 41.6541663,31.8721148 40.9491386,31.5314284 C41.4160648,31.5699408 41.5675839,30.9063431 41.3758659,30.500482 C41.1841478,30.0946209 40.791435,29.7420846 40.7883428,29.2917861 C40.8115029,29.1286125 40.8115029,28.9631864 40.7883428,28.8000128 C40.6584693,28.3674893 39.9194271,28.3319394 39.795738,27.9112659 C39.7797272,27.7498009 39.7745629,27.5875171 39.7802769,27.4254175 C39.7308013,27.0906562 39.372103,26.8773569 39.0350503,26.7825573 C38.6849262,26.7255926 38.3479303,26.6102866 38.0393533,26.4418709 C37.8228974,26.284859 37.572427,26.0241599 37.34051,26.1456219 C37.2539277,26.1959843 37.2106365,26.2907839 37.1456998,26.3618837 C36.8673994,26.6729451 36.3355364,26.5366706 35.9861148,26.3085589 C34.953311,25.6360737 34.4400014,24.4303403 34.2204533,23.2542319 C34.0009052,22.0781234 34.0070897,20.8635026 33.7318815,19.6992441 C33.6479448,19.3363968 33.5363248,18.9799405 33.397921,18.6327478 C33.2804164,18.3364988 32.9031647,17.8713879 32.8784269,17.5721764 C32.8227668,16.8908038 34.2946667,17.3559147 34.8543598,17.4240519 C35.3977488,17.4748942 35.9350203,17.5740714 36.4592254,17.7203009 C37.0187326,17.9228138 37.5668048,18.153215 38.1011978,18.410561 C40.3337855,19.3555953 43.0302072,19.4711324 44.8236987,21.0590269 C45.414314,21.5804251 45.9121625,22.2647603 46.6790347,22.5017595 C47.0307474,22.5663538 47.3777857,22.6524418 47.7180229,22.7594961 C48.5683852,23.1416573 48.7013509,24.2229661 49.1651849,25.0050634 C49.3110035,25.211601 49.4382424,25.4296344 49.5455288,25.6568111 C49.6349385,25.9247266 49.6767496,26.2051251 49.6692179,26.4863083 L49.7341547,28.5393137 C49.8392904,31.9787644 49.9444261,35.4271025 49.56099,38.8458158 C49.4373009,39.9745244 49.2517673,41.1358204 49.6011889,42.2200917 C49.6939557,42.5163407 49.8238292,42.7948147 49.9104116,43.0940262 C49.9868879,43.4448388 50.0262552,43.802144 50.0279162,44.1605225 L50.0773918,45.4906805 C50.0945736,45.5941171 50.0702704,45.6999516 50.0093628,45.7869294 C49.9046598,45.8683758 49.7670678,45.8999689 49.6352034,45.8728416 C47.7025617,45.7069422 45.7482744,44.6641458 43.9238607,45.2951561" id="路径" fill="#FFDEC8"></path>
                    </g>
                    <g id="编组-3" transform="translate(137.259244, 51.617647)"></g>
                    <g id="编组" transform="translate(0.759244, 0.000000)"></g>
                    <path d="M213.818067,122.298111 L213.818067,118.573219 C213.818067,112.863256 209.227447,108.235294 203.567222,108.235294 L57.7453829,108.235294 C52.0851583,108.235294 47.4945378,112.863256 47.4945378,118.573219 L47.4945378,125.441176 L213.818067,122.298111 Z" id="路径" fill="#D5D5D5" fill-rule="nonzero"></path>
                    <path d="M216.764706,128.292022 L216.764706,229.732884 C216.764706,234.577427 212.803037,238.503843 207.918656,238.503843 L55.8401207,238.503843 C50.9573774,238.50222 47,234.575803 47,229.732884 L47,118.062667 C51.357806,119.665138 51.357806,119.665138 55.8401207,119.532824 L207.918656,119.532824 C212.798412,119.532817 216.756529,123.452073 216.764706,128.292022 Z" id="路径" fill="url(#linearGradient-2)" fill-rule="nonzero"></path>
                    <path d="M215.259244,159.441176 L215.259244,192.705882 L183.326083,192.705882 C174.319993,192.583379 167.082773,185.172822 167.082773,176.073529 C167.082773,166.974237 174.319993,159.563679 183.326083,159.441176 L215.259244,159.441176 Z" id="路径" fill="#000000" fill-rule="nonzero" opacity="0.1"></path>
                    <path d="M216.406303,159.441176 L216.406303,192.705882 L184.473142,192.705882 C175.467051,192.583402 168.229832,185.174187 168.229832,176.076544 C168.229832,166.978901 175.467051,159.569686 184.473142,159.447205 L216.406303,159.441176 Z" id="路径" fill="#D5D5D5" fill-rule="nonzero"></path>
                    <circle id="椭圆形" fill="#000000" fill-rule="nonzero" opacity="0.1" cx="185.435714" cy="176.647059" r="5.73529412"></circle>
                    <circle id="椭圆形" fill="#34D5A5" fill-rule="nonzero" cx="186.582773" cy="176.647059" r="5.73529412"></circle>
                </g>
                <polygon id="路径" fill="#757575" fill-rule="nonzero" opacity="0.300000012" points="242.478745 234.000017 240.320831 240.335837 234 242.478833 240.295355 244.66418 242.478761 251 244.61969 244.681113 251 242.495767 244.679169 240.361237 242.478778 234"></polygon>
                <polygon id="路径" fill="#757575" fill-rule="nonzero" opacity="0.100000001" points="259.478745 159.000017 257.320831 165.335837 251 167.478833 257.295355 169.66418 259.478761 176 261.61969 169.681113 268 167.495767 261.679169 165.361237 259.478778 159"></polygon>
                <polygon id="路径" fill="#757575" fill-rule="nonzero" opacity="0.300000012" points="14.9824955 120.000014 13.2053903 125.217748 8 126.982568 13.1844096 128.782266 14.9825092 134 16.7456273 128.796211 22 126.996514 16.7946097 125.238666 14.982523 120"></polygon>
                <polygon id="路径" fill="#757575" fill-rule="nonzero" opacity="0.100000001" points="53.4712427 60.0000225 50.5517127 68.5720146 42 71.4713623 50.5172444 74.4280078 53.4712652 83 56.3678163 74.450918 65 71.4942725 56.4482873 68.6063799 53.4712877 60"></polygon>
            </g>
        </g>
    </g>
</svg>