<?xml version="1.0" encoding="UTF-8"?>
<svg width="72px" height="72px" viewBox="0 0 72 72" version="1.1" xmlns="http://www.w3.org/2000/svg" xmlns:xlink="http://www.w3.org/1999/xlink">
    <!-- Generator: Sketch 60 (88103) - https://sketch.com -->
    <title>coin_warning_circle</title>
    <desc>Created with Sketch.</desc>
    <g id="页面-1" stroke="none" stroke-width="1" fill="none" fill-rule="evenodd">
        <g id="切图" transform="translate(-809.000000, -382.000000)" fill="#FFFFFF" fill-rule="nonzero">
            <g id="coin_warning_circle" transform="translate(809.000000, 382.000000)">
                <path d="M36.0000474,0.38750592 C16.3336573,0.38750592 0.38750592,16.3336573 0.38750592,36.0000474 C0.38750592,55.6664374 16.3336573,71.6125888 36.0000474,71.6125888 C55.6664374,71.6125888 71.6125888,55.6664374 71.6125888,36.0000474 C71.6125888,16.3336573 55.6664374,0.38750592 36.0000474,0.38750592 Z M36.0000474,65.5711755 C19.672333,65.5711755 6.4289192,52.3277617 6.4289192,36.0000474 C6.4289192,19.672333 19.672333,6.4289192 36.0000474,6.4289192 C52.3277617,6.4289192 65.5711755,19.672333 65.5711755,36.0000474 C65.5711755,52.3277617 52.3277617,65.5711755 36.0000474,65.5711755 Z" id="形状"></path>
                <path d="M32.1844179,49.9906886 L32.1844179,49.9906892 C32.1844179,52.0980057 33.8927309,53.8063187 36.0000474,53.8063187 C38.1073639,53.8063187 39.8156768,52.0980057 39.8156768,49.9906892 L39.8156768,49.9906892 C39.8156768,47.8833727 38.1073639,46.1750598 36.0000474,46.1750598 C33.8927309,46.1750598 32.1844179,47.8833727 32.1844179,49.9906892 L32.1844179,49.9906886 Z" id="路径"></path>
                <path d="M34.0922326,41.0875533 L37.9078621,41.0875533 C38.2576281,41.0875533 38.5438003,40.8013811 38.5438003,40.451615 L38.5438003,18.8297149 C38.5438003,18.4799488 38.2576281,18.1937766 37.9078621,18.1937766 L34.0922326,18.1937766 C33.7424666,18.1937766 33.4562944,18.4799488 33.4562944,18.8297149 L33.4562944,40.451615 C33.4562944,40.8013811 33.7424666,41.0875533 34.0922326,41.0875533 Z" id="路径"></path>
            </g>
        </g>
    </g>
</svg>