<?xml version="1.0" encoding="UTF-8"?>
<svg width="100px" height="100px" viewBox="0 0 100 100" version="1.1" xmlns="http://www.w3.org/2000/svg" xmlns:xlink="http://www.w3.org/1999/xlink">
    <!-- Generator: Sketch 60 (88103) - https://sketch.com -->
    <title>pulsar_logo</title>
    <desc>Created with Sketch.</desc>
    <defs>
        <path d="M45.3032138,45.2627824 C50.7403539,42.5460713 54.1283966,36.9060824 53.9962708,30.7916706 C53.9206196,27.6502831 52.907055,24.604831 51.087853,22.052763 C50.5266915,21.2738305 49.8943041,20.54963 49.1989912,19.8896671 C43.7251823,14.6104541 35.3069105,13.9801905 29.1191027,18.3863154 C27.4563306,19.4747927 26.1525098,21.0372166 25.3735757,22.8747395 C25.0782265,23.6526951 24.890443,24.4678877 24.8155029,25.2974069 C24.7727814,25.9600578 24.7727814,26.6248043 24.8155029,27.2874552 L25.8887198,28.8232533 L24.8155029,27.2982706 C24.8384337,29.0014068 24.7380001,30.7039588 24.5150021,32.3923616 C23.906747,34.2826983 22.7334547,35.937303 21.1558332,37.1295417 C17.0418703,40.0460549 11.3648515,39.0812846 8.42748058,34.9664457 C7.021661,32.9947728 6.45743903,30.5380633 6.86069775,28.1444316 C7.26395647,25.7507998 8.60114142,23.6194158 10.5739144,22.2258107 C13.5740185,20.1073449 17.5341115,19.9799779 20.6621534,21.9013463 L20.7265464,21.9013463 L16.9273585,16.5584994 L15.5214444,14.5792666 L14.9204429,13.7248437 L5.15416898,0 L0.324692863,3.43932253 L8.77090999,15.3363502 L8.26649804,15.5959217 C7.69279907,15.9057864 7.13737512,16.2488501 6.60301182,16.6233922 C5.1840727,17.6373042 3.94040567,18.8796634 2.9218778,20.3006553 C-0.973959266,25.7648746 -0.973959266,33.1254122 2.9218778,38.5896314 C3.61385046,39.5643499 4.41712022,40.4537167 5.31515152,41.2394239 C9.68845115,45.1096264 15.8137361,46.2553575 21.2738871,44.2244963 C22.5560777,43.7410108 23.7715455,43.0940294 24.8906281,42.2993409 C28.1961362,39.9523818 29.0547097,37.3999286 29.1834957,35.2260172 C29.1888426,35.1540147 29.1888426,35.0817102 29.1834957,35.0097076 C29.2158898,34.4730348 29.2158898,33.934874 29.1834957,33.3982012 L29.1834957,33.3982012 C29.1834957,33.3982012 29.1834957,32.3166532 29.1834957,31.1810278 C29.1947167,30.2198584 29.2844546,29.2612521 29.4518,28.3149257 C30.0501149,26.4224472 31.2209453,24.766022 32.8002367,23.5777456 C33.4124749,23.1316046 34.0799439,22.7680098 34.785688,22.4961977 C38.6791143,20.9955768 43.087049,22.3282224 45.5178572,25.7408416 C46.9202494,27.7117584 47.4824595,30.1659346 47.0793047,32.5569181 C46.6761499,34.9479017 45.3411012,37.0771864 43.3714234,38.4706611 C40.4754884,40.5202318 36.6695643,40.7136875 33.5836851,38.9681732 L33.2509878,38.7626791 L37.0287114,44.0730796 L37.8550884,45.2303359 L39.0463592,46.9067353 L48.8019009,60.6315789 L53.6421092,57.1922564 L45.1851599,45.2952288 L45.3032138,45.2627824 Z" id="path-1"></path>
    </defs>
    <g id="波霎APP1.0" stroke="none" stroke-width="1" fill="none" fill-rule="evenodd">
        <g id="钱包" transform="translate(-60.000000, -186.000000)">
            <g id="pulsar_logo" transform="translate(60.000000, 186.000000)">
                <rect id="矩形" fill="#FFFFFF" x="0" y="0" width="100" height="100" rx="50"></rect>
                <g id="路径-3复制-4" transform="translate(23.000000, 20.000000)">
                    <mask id="mask-2" fill="white">
                        <use xlink:href="#path-1"></use>
                    </mask>
                    <use id="蒙版" fill="#34D5A5" fill-rule="nonzero" xlink:href="#path-1"></use>
                    <polygon id="路径-3" fill="#FF6D6D" mask="url(#mask-2)" points="33.1578947 38.2882308 20.5574022 21.5732232 23.1108866 20.83582 4.78328543 -3.78947368 -9.47368421 7.30844406 -5.82189243 47.2559586 24.8943582 52.1052632"></polygon>
                </g>
            </g>
        </g>
    </g>
</svg>