<?xml version="1.0" encoding="UTF-8"?>
<svg width="46px" height="46px" viewBox="0 0 46 46" version="1.1" xmlns="http://www.w3.org/2000/svg" xmlns:xlink="http://www.w3.org/1999/xlink">
    <!-- Generator: Sketch 60 (88103) - https://sketch.com -->
    <title>wd</title>
    <desc>Created with Sketch.</desc>
    <g id="波霎APP1.0" stroke="none" stroke-width="1" fill="none" fill-rule="evenodd">
        <g id="切图" transform="translate(-609.000000, -676.000000)" fill-rule="nonzero">
            <g id="wd" transform="translate(609.000000, 676.000000)">
                <g id="我的">
                    <path d="M23,0.2 C10.4079077,0.2 0.2,10.4079077 0.2,23 C0.2,35.5920923 10.4079077,45.8 23,45.8 C35.5920923,45.8 45.8,35.5920923 45.8,23 C45.8,10.4079077 35.5920923,0.2 23,0.2 Z M23,3.8 C33.6038672,3.8 42.2,12.3961328 42.2,23 C42.2,33.6038672 33.6038672,42.2 23,42.2 C12.3961328,42.2 3.8,33.6038672 3.8,23 C3.8,12.3961328 12.3961328,3.8 23,3.8 Z" id="椭圆形" fill="#FF6D6D"></path>
                    <path d="M31.6470588,22.4352941 C32.6411714,22.4352941 33.4470588,23.2411816 33.4470588,24.2352941 C33.4470588,30.0050454 28.7697513,34.6823529 23,34.6823529 C17.2302487,34.6823529 12.5529412,30.0050454 12.5529412,24.2352941 C12.5529412,23.2411816 13.3588286,22.4352941 14.3529412,22.4352941 C15.3470537,22.4352941 16.1529412,23.2411816 16.1529412,24.2352941 C16.1529412,28.0168203 19.2184738,31.0823529 23,31.0823529 C26.7815262,31.0823529 29.8470588,28.0168203 29.8470588,24.2352941 C29.8470588,23.2411816 30.6529463,22.4352941 31.6470588,22.4352941 Z" id="路径" fill="#34D5A5"></path>
                </g>
            </g>
        </g>
    </g>
</svg>