<?xml version="1.0" encoding="UTF-8"?>
<svg width="38px" height="38px" viewBox="0 0 38 38" version="1.1" xmlns="http://www.w3.org/2000/svg" xmlns:xlink="http://www.w3.org/1999/xlink">
    <!-- Generator: Sketch 60 (88103) - https://sketch.com -->
    <title>wt</title>
    <desc>Created with Sketch.</desc>
    <g id="波霎APP1.0" stroke="none" stroke-width="1" fill="none" fill-rule="evenodd">
        <g id="切图" transform="translate(-1024.000000, -198.000000)" fill="#222222" fill-rule="nonzero">
            <g id="wt" transform="translate(1024.000000, 198.000000)">
                <path d="M18.9877782,0.181026035 C8.62344799,0.181026035 0.193268061,8.615288 0.193268061,18.9755362 C0.193268061,29.3398664 8.62344799,37.7700463 18.9877782,37.7700463 C29.3521084,37.7700463 37.7822884,29.3398664 37.7822884,18.9755362 C37.7822884,8.615288 29.3521084,0.181026035 18.9877782,0.181026035 Z M18.9877782,35.0769639 C10.1087376,35.0769639 2.89043253,27.8545768 2.89043253,18.9796182 C2.89043253,10.1005776 10.1128196,2.88227254 18.9877782,2.88227254 C27.8627368,2.88227254 35.0851239,10.1046597 35.0851239,18.9796182 C35.0851239,27.8545768 27.8627368,35.0769639 18.9877782,35.0769639 Z M18.9877782,8.15422203 C15.735665,8.15422203 13.0874401,10.7779466 13.0874401,14.0055757 C13.0874401,14.7482164 13.6913447,15.356203 14.4339854,15.356203 C15.1766261,15.356203 15.7846127,14.7522985 15.7846127,14.0055757 C15.7846127,12.238744 17.1923641,10.8513947 18.9877578,10.8513947 C20.7545895,10.8513947 22.1909029,12.29995 22.1909029,14.0831058 C22.1909029,14.7563805 21.2279179,15.7193614 20.3791851,16.5680942 C19.0938458,17.8493514 17.6371264,19.3060709 17.6371264,21.2565167 L17.6371264,23.1824866 C17.6371264,23.9292093 18.241031,24.5331139 18.9877537,24.5331139 C19.7303944,24.5331139 20.3383811,23.9292093 20.3383811,23.1824866 L20.3383811,21.2524387 C20.3383811,20.4200299 21.329928,19.428483 22.2888309,18.473658 C23.5088821,17.2536069 24.8921535,15.8703355 24.8921535,14.0831017 C24.888073,10.8146686 22.2398669,8.15422203 18.9877741,8.15422203 L18.9877782,8.15422203 Z M16.9638803,29.1725846 C16.9638803,30.2906257 17.8697371,31.1964825 18.9877782,31.1964825 C20.1058193,31.1964825 21.0116762,30.2906257 21.0116762,29.1725846 C21.0116762,28.0545435 20.1058193,27.1486866 18.9877782,27.1486866 C17.8697371,27.1486866 16.9638803,28.0545435 16.9638803,29.1725846 L16.9638803,29.1725846 Z" id="形状"></path>
            </g>
        </g>
    </g>
</svg>