<?xml version="1.0" encoding="UTF-8"?>
<svg width="22px" height="20px" viewBox="0 0 22 20" version="1.1" xmlns="http://www.w3.org/2000/svg" xmlns:xlink="http://www.w3.org/1999/xlink">
    <!-- Generator: Sketch 60 (88103) - https://sketch.com -->
    <title>by</title>
    <desc>Created with Sketch.</desc>
    <g id="波霎APP1.0" stroke="none" stroke-width="1" fill="none" fill-rule="evenodd">
        <g id="切图" transform="translate(-2161.000000, -935.000000)" fill="#FFEAEA" fill-rule="nonzero">
            <path d="M2182.83582,944.815605 C2181.63184,941.905778 2179.33333,939.667449 2176.59701,938.492326 L2178.12935,935.86229 C2178.29353,935.582499 2178.18408,935.24675 2177.91045,935.078875 C2177.63682,934.911001 2177.30846,935.022917 2177.14428,935.302708 L2175.50249,938.100619 C2174.35323,937.76487 2173.20398,937.541037 2171.94527,937.541037 C2167.23881,937.541037 2162.97015,940.394906 2161.10945,944.815605 L2161,945.039438 L2161.10945,945.263271 C2162.36816,948.229056 2164.72139,950.523343 2167.56716,951.698465 L2166.25373,954.160627 C2166.08955,954.440418 2166.199,954.776167 2166.47264,954.944042 C2166.58209,955 2166.63682,955 2166.74627,955 C2166.91045,955 2167.12935,954.888084 2167.23881,954.720209 L2168.77114,952.090173 C2169.81095,952.425922 2170.90547,952.593797 2172.05473,952.593797 C2176.76119,952.593797 2181.02985,949.739928 2182.89055,945.319229 L2183,945.095396 L2182.83582,944.815605 Z M2162.31343,945.039438 C2164.00995,941.178321 2167.8408,938.716159 2172,938.716159 C2173.0398,938.716159 2174.02488,938.884034 2174.95522,939.163825 L2173.58706,941.51407 C2173.09453,941.290237 2172.54726,941.178321 2172,941.178321 C2169.86567,941.178321 2168.11443,942.968984 2168.11443,945.151354 C2168.11443,946.438393 2168.71642,947.557557 2169.64677,948.285014 L2168.16915,950.803134 C2165.65174,949.739928 2163.46269,947.725432 2162.31343,945.039438 L2162.31343,945.039438 Z M2172,951.418674 C2171.06965,951.418674 2170.19403,951.306758 2169.31841,951.082925 L2170.68657,948.788638 C2171.12438,948.956513 2171.56219,949.012471 2172.05473,949.012471 C2174.18905,949.012471 2175.88557,947.221808 2175.88557,945.095396 C2175.88557,943.920273 2175.39303,942.857067 2174.57214,942.12961 L2176.04975,939.555533 C2178.51244,940.56278 2180.59204,942.521318 2181.74129,945.095396 C2179.99005,948.956513 2176.21393,951.418674 2172,951.418674 Z" id="by" transform="translate(2172.000000, 945.000000) scale(-1, 1) translate(-2172.000000, -945.000000) "></path>
        </g>
    </g>
</svg>