<?xml version="1.0" encoding="UTF-8"?>
<svg width="22px" height="15px" viewBox="0 0 22 15" version="1.1" xmlns="http://www.w3.org/2000/svg" xmlns:xlink="http://www.w3.org/1999/xlink">
    <!-- Generator: Sketch 60 (88103) - https://sketch.com -->
    <title>zy</title>
    <desc>Created with Sketch.</desc>
    <g id="波霎APP1.0" stroke="none" stroke-width="1" fill="none" fill-rule="evenodd">
        <g id="切图" transform="translate(-2204.000000, -938.000000)" fill="#FFEAEA" fill-rule="nonzero">
            <path d="M2215.07449,949.613941 C2212.79997,949.613941 2210.95606,947.785641 2210.95606,945.530132 C2210.95606,943.274738 2212.79986,941.44593 2215.07449,941.44593 C2217.34924,941.44593 2219.19328,943.274733 2219.19328,945.530132 C2219.19316,947.785526 2217.34925,949.613941 2215.07449,949.613941 M2225.9765,945.707313 C2225.96858,945.741918 2225.9726,945.778663 2225.96196,945.811758 C2225.95771,945.824593 2225.94837,945.833276 2225.94376,945.845231 C2225.93631,945.866623 2225.9382,945.887135 2225.92816,945.906011 C2223.93118,950.439076 2219.58604,953 2215.00001,953 C2210.41458,953 2206.06814,950.433546 2204.0708,945.900726 C2204.06217,945.882228 2204.06359,945.859326 2204.05685,945.840324 C2204.05213,945.827111 2204.04208,945.820568 2204.03771,945.80509 C2204.02683,945.772498 2204.0312,945.734872 2204.02447,945.701147 C2204.01182,945.639109 2204,945.580972 2204,945.518179 C2204,945.45677 2204.01182,945.396997 2204.02447,945.33584 C2204.0312,945.301235 2204.02683,945.265371 2204.03771,945.231143 C2204.04208,945.218559 2204.05213,945.210883 2204.05685,945.198048 C2204.06359,945.176278 2204.06217,945.156269 2204.0708,945.137394 C2206.06814,940.604329 2210.45725,938 2215.0429,938 C2219.62893,938 2223.93116,940.608998 2225.92813,945.141941 C2225.93818,945.160439 2225.93629,945.183215 2225.94374,945.202594 C2225.94835,945.214926 2225.95768,945.223232 2225.96194,945.237703 C2225.97258,945.27105 2225.96856,945.307669 2225.97648,945.342023 C2225.98865,945.403935 2226,945.462701 2226,945.524236 C2226,945.586526 2225.98865,945.646173 2225.97648,945.70733 M2215.04302,939.361708 C2211.14421,939.361708 2207.26526,941.446842 2205.40219,945.51909 C2207.28286,949.606315 2211.11111,951.638966 2214.99999,951.638966 C2218.8988,951.638966 2222.73474,949.595609 2224.59685,945.524128 C2222.73343,941.448995 2218.9404,939.361708 2215.04302,939.361708" id="zy" transform="translate(2215.000000, 945.500000) scale(-1, 1) translate(-2215.000000, -945.500000) "></path>
        </g>
    </g>
</svg>